<?xml version="1.0" encoding="UTF-8"?>
<svg version="1.1" xmlns="http://www.w3.org/2000/svg" width="500" height="500">
<path d="M0 0 C3.32119388 2.69239642 6.59705606 5.48597588 9.26953125 8.83984375 C9.26953125 9.49984375 9.26953125 10.15984375 9.26953125 10.83984375 C9.92953125 10.83984375 10.58953125 10.83984375 11.26953125 10.83984375 C15.10689845 17.19548317 16.39517831 22.41512122 15.26953125 29.83984375 C12.82775167 34.8138392 9.52447981 38.63015022 4.23046875 40.59765625 C-1.1507936 42.05854878 -5.59128612 42.12513985 -10.73046875 39.83984375 C-14.56676206 37.17792594 -17.16991255 34.31968026 -20.10546875 30.71484375 C-24.31481375 25.84376766 -28.09888857 24.15540841 -34.47265625 23.6015625 C-42.79634074 23.3872671 -47.84735304 25.14681031 -54.73046875 29.83984375 C-55.39046875 29.83984375 -56.05046875 29.83984375 -56.73046875 29.83984375 C-56.99085938 30.525625 -57.25125 31.21140625 -57.51953125 31.91796875 C-58.89134585 35.22802463 -60.47983966 38.4002247 -62.10546875 41.58984375 C-70.63423979 58.50776611 -78.67657978 75.65608424 -86.57885742 92.8737793 C-89.57667226 99.38924125 -92.66683554 105.82980296 -95.91796875 112.22265625 C-98.77160734 117.86832078 -101.4573658 123.5967761 -104.17626953 129.30810547 C-106.89878672 135.02233879 -109.64127395 140.72610184 -112.41015625 146.41796875 C-113.04032319 147.71539399 -113.6704502 149.01283862 -114.30053711 150.31030273 C-115.22296096 152.20956922 -116.14642835 154.1082825 -117.07376099 156.00515747 C-126.51305064 173.76595321 -126.51305064 173.76595321 -125.54296875 193.15234375 C-122.57657662 199.89916121 -118.18961847 203.66898843 -111.73046875 206.83984375 C-105.67509089 208.73686047 -99.08240122 208.51751921 -93.04296875 206.77734375 C-91.94984375 206.13796875 -90.85671875 205.49859375 -89.73046875 204.83984375 C-88.77914062 204.30037109 -88.77914062 204.30037109 -87.80859375 203.75 C-80.26786309 198.4744113 -77.90217847 189.58898018 -74.73681641 181.34960938 C-73.71030593 178.78955899 -72.58878921 176.29560697 -71.4296875 173.79296875 C-67.95246918 166.24410186 -64.86603303 158.53501322 -61.73046875 150.83984375 C-57.89406202 141.42469632 -54.01284079 132.06356744 -49.73046875 122.83984375 C-49.20582031 121.66292969 -48.68117188 120.48601562 -48.140625 119.2734375 C-41.90455945 105.40948887 -41.90455945 105.40948887 -37.73046875 99.83984375 C-37.07046875 99.83984375 -36.41046875 99.83984375 -35.73046875 99.83984375 C-35.33988281 98.95425781 -35.33988281 98.95425781 -34.94140625 98.05078125 C-29.89646181 88.83968914 -17.9531969 83.93506038 -8.41796875 80.96484375 C7.41936567 77.50107891 23.81714356 78.43041086 38.01953125 86.37890625 C53.49034148 96.33116527 61.08114092 112.23360422 67.61328125 128.734375 C69.07692453 132.41827621 70.69964167 136.00549817 72.39453125 139.58984375 C74.91938253 144.96272727 77.09618335 150.41373109 79.17578125 155.97265625 C80.03508683 158.22526446 80.9490659 160.40255893 81.95703125 162.58984375 C87.07865132 175.27195058 87.1657678 191.06339816 82.26953125 203.83984375 C81.97949219 204.60296875 81.68945312 205.36609375 81.390625 206.15234375 C78.97848737 211.96569638 75.98595149 217.75365719 72.26953125 222.83984375 C71.60953125 222.83984375 70.94953125 222.83984375 70.26953125 222.83984375 C70.26953125 223.49984375 70.26953125 224.15984375 70.26953125 224.83984375 C69.60953125 224.83984375 68.94953125 224.83984375 68.26953125 224.83984375 C68.26953125 225.49984375 68.26953125 226.15984375 68.26953125 226.83984375 C67.60953125 226.83984375 66.94953125 226.83984375 66.26953125 226.83984375 C66.26953125 227.49984375 66.26953125 228.15984375 66.26953125 228.83984375 C65.60953125 228.83984375 64.94953125 228.83984375 64.26953125 228.83984375 C64.26953125 229.49984375 64.26953125 230.15984375 64.26953125 230.83984375 C49.82237103 241.99107388 33.168801 245.5987732 15.26953125 243.83984375 C3.6575999 241.83271812 -7.73532452 236.4478863 -16.73046875 228.83984375 C-16.73046875 228.17984375 -16.73046875 227.51984375 -16.73046875 226.83984375 C-17.39046875 226.83984375 -18.05046875 226.83984375 -18.73046875 226.83984375 C-23.16362824 220.74424945 -23.75538638 215.28343745 -22.73046875 207.83984375 C-20.31111599 202.82192691 -16.73129565 199.3402572 -11.73046875 196.83984375 C-5.64324201 195.76617646 -0.21575126 195.63305134 5.1015625 199.03515625 C7.57312134 200.78089426 9.92523479 202.64771413 12.2734375 204.5546875 C17.76347789 208.74200644 23.55408201 208.35211796 30.26953125 207.83984375 C36.4857659 206.4903364 41.77089636 203.39221604 45.4921875 198.1015625 C48.28155588 193.43261973 49.41562564 189.52945891 49.51953125 184.15234375 C49.55820312 182.97091797 49.55820312 182.97091797 49.59765625 181.765625 C48.77697014 174.44784049 45.37439477 167.33889265 42.6875 160.52734375 C42.35083817 159.67358154 42.01417633 158.81981934 41.66731262 157.94018555 C40.95867757 156.14800085 40.24850822 154.35642212 39.53686523 152.56542969 C38.81770224 150.75020571 38.10316996 148.93314019 37.39331055 147.11425781 C32.50360269 134.10374007 32.50360269 134.10374007 25.29418945 122.30078125 C24.26953125 120.83984375 24.26953125 120.83984375 24.26953125 118.83984375 C23.60953125 118.83984375 22.94953125 118.83984375 22.26953125 118.83984375 C22.26953125 118.17984375 22.26953125 117.51984375 22.26953125 116.83984375 C21.48578125 116.53046875 20.70203125 116.22109375 19.89453125 115.90234375 C17.26953125 114.83984375 17.26953125 114.83984375 15.26953125 113.83984375 C7.7602381 113.09529627 1.87540896 113.03017356 -4.2421875 117.74609375 C-5.73046875 118.83984375 -5.73046875 118.83984375 -7.73046875 118.83984375 C-7.73046875 119.49984375 -7.73046875 120.15984375 -7.73046875 120.83984375 C-8.39046875 120.83984375 -9.05046875 120.83984375 -9.73046875 120.83984375 C-9.97023438 121.47019531 -10.21 122.10054687 -10.45703125 122.75 C-11.48015707 125.23249241 -12.55685585 127.65408087 -13.69140625 130.0859375 C-19.02362109 141.53006196 -23.91903152 153.10145396 -28.55856323 164.83926392 C-32.49214399 174.79090718 -36.57295888 184.66363048 -40.8515625 194.47265625 C-42.41284415 198.05952979 -43.83084954 201.68660038 -45.23046875 205.33984375 C-51.90299927 221.39060444 -63.87970729 233.42510891 -79.85546875 240.08984375 C-94.44596507 245.84526444 -111.26251283 246.00618634 -125.73046875 239.83984375 C-131.36449245 237.34892951 -136.8229405 234.58506268 -141.73046875 230.83984375 C-141.73046875 230.17984375 -141.73046875 229.51984375 -141.73046875 228.83984375 C-142.39046875 228.83984375 -143.05046875 228.83984375 -143.73046875 228.83984375 C-143.73046875 228.17984375 -143.73046875 227.51984375 -143.73046875 226.83984375 C-144.39046875 226.83984375 -145.05046875 226.83984375 -145.73046875 226.83984375 C-145.73046875 226.17984375 -145.73046875 225.51984375 -145.73046875 224.83984375 C-146.39046875 224.83984375 -147.05046875 224.83984375 -147.73046875 224.83984375 C-150.30946594 221.68279547 -152.48573391 218.23973427 -154.73046875 214.83984375 C-155.45234375 213.78796875 -156.17421875 212.73609375 -156.91796875 211.65234375 C-164.09134032 198.26826087 -164.95068197 181.08205675 -161.16796875 166.58984375 C-157.60955453 155.82720143 -152.2458607 145.82260597 -147.13598633 135.73925781 C-143.65379245 128.8061005 -140.4181537 121.75867439 -137.16796875 114.71484375 C-133.39177363 106.5328212 -129.57766905 98.39373804 -125.49609375 90.359375 C-123.22742398 85.837093 -121.03771321 81.27934523 -118.85546875 76.71484375 C-118.40300781 75.76875244 -117.95054687 74.82266113 -117.484375 73.84790039 C-114.85444665 68.33377616 -112.24423497 62.81085786 -109.65103149 57.27938843 C-108.1725287 54.12574201 -106.69130978 50.97337295 -105.21038818 47.82086182 C-104.13984097 45.53813558 -103.07398987 43.25325895 -102.00830078 40.96826172 C-97.22298692 30.75375795 -92.09183111 20.76360195 -86.73046875 10.83984375 C-86.07046875 10.83984375 -85.41046875 10.83984375 -84.73046875 10.83984375 C-84.4571875 10.246875 -84.18390625 9.65390625 -83.90234375 9.04296875 C-78.54895334 -1.02140521 -65.38293859 -7.43423644 -54.890625 -10.6875 C-35.42217806 -14.94732293 -16.12298357 -11.90339821 0 0 Z " fill="#0B0B0B" transform="translate(289.73046875,131.16015625)"/>
<path d="M0 0 C1.109375 3.734375 1.109375 3.734375 0.125 6.125 C-3.11182101 8.98101854 -6.81901622 9.33384745 -11 10 C-8.70395251 7.64600809 -6.29439874 5.46890382 -3.8125 3.3125 C-2.73935547 2.37857422 -2.73935547 2.37857422 -1.64453125 1.42578125 C-1.10183594 0.95527344 -0.55914062 0.48476563 0 0 Z " fill="#848484" transform="translate(208,329)"/>
<path d="M0 0 C0.66 0.33 1.32 0.66 2 1 C-0.24773615 4.43075518 -2.48586126 5.95689608 -6 8 C-8.05531111 9.60934738 -10.02032565 11.29655928 -12 13 C-10.61536056 9.87250593 -9.00477577 7.7595015 -6.5625 5.375 C-5.96566406 4.78460938 -5.36882812 4.19421875 -4.75390625 3.5859375 C-3 2 -3 2 0 0 Z " fill="#999999" transform="translate(217,129)"/>
<path d="M0 0 C0.33 0.66 0.66 1.32 1 2 C1.66 2.33 2.32 2.66 3 3 C3.5625 4.9375 3.5625 4.9375 4 7 C4.33 7.66 4.66 8.32 5 9 C3 8 1 7 -1 6 C-1 5.34 -1 4.68 -1 4 C-1.66 4 -2.32 4 -3 4 C-3.33 3.01 -3.66 2.02 -4 1 C-2.68 0.67 -1.36 0.34 0 0 Z " fill="#5F5F5F" transform="translate(274,354)"/>
<path d="M0 0 C0.75 1.5625 0.75 1.5625 1 4 C-0.13084437 6.50286409 -1.52139516 8.67007722 -3 11 C-4.32 10.67 -5.64 10.34 -7 10 C-6.57847656 9.44570313 -6.15695312 8.89140625 -5.72265625 8.3203125 C-5.17480469 7.59585937 -4.62695312 6.87140625 -4.0625 6.125 C-3.51722656 5.40570313 -2.97195313 4.68640625 -2.41015625 3.9453125 C-0.96035376 2.05642921 -0.96035376 2.05642921 0 0 Z " fill="#6A6A6A" transform="translate(338,324)"/>
<path d="M0 0 C0.66 0.33 1.32 0.66 2 1 C-0.17024784 4.25537177 -1.68059295 5.07011218 -5 7 C-6.68477344 8.31037934 -8.35648543 9.63823078 -10 11 C-8.55218207 7.55571735 -6.72305391 5.63869038 -3.875 3.25 C-3.15054687 2.63640625 -2.42609375 2.0228125 -1.6796875 1.390625 C-0.84824219 0.70226562 -0.84824219 0.70226562 0 0 Z " fill="#989898" transform="translate(264,220)"/>
<path d="M0 0 C-5.41538462 4.06153846 -5.41538462 4.06153846 -8.375 3.75 C-8.91125 3.5025 -9.4475 3.255 -10 3 C-3.375 -1.125 -3.375 -1.125 0 0 Z " fill="#989898" transform="translate(276,216)"/>
<path d="M0 0 C0.99 0.33 1.98 0.66 3 1 C2.01 2.98 1.02 4.96 0 7 C-0.66 5.68 -1.32 4.36 -2 3 C-1.34 2.01 -0.68 1.02 0 0 Z " fill="#313131" transform="translate(165,296)"/>
</svg>
